<svg id="Layer_1" data-name="Layer 1" xmlns="http://www.w3.org/2000/svg" viewBox="0 0 24 24"><defs><style>.cls-1{fill:#3e81f6}.cls-4{fill:none}</style></defs><path class="cls-1" d="M3.51 3.51a12 12 0 0 0 0 17L12 12z"/><path d="M20.49 3.51a12 12 0 0 0-17 0L12 12zm0 16.98L12 12l-8.49 8.49a12 12 0 0 0 16.98 0z" fill="#7fa6f6"/><path class="cls-1" d="M20.49 20.49a12 12 0 0 0 0-17L12 12z"/><circle cx="12" cy="12" r="9" fill="#fff"/><path class="cls-4" d="M4.5 4.5h15v15h-15z"/><path class="cls-4" d="M3 3.5h17v17H3z"/><path d="M9.38 15l-2.96-3-1 1 4 4 8.5-8.5-1-1z" fill="#4285f4"/></svg>